<svg width="120" height="120" viewBox="0 0 120 120" fill="none" xmlns="http://www.w3.org/2000/svg">
<path d="M2 68.197C2 68.2089 3.09853 68.269 5.35388 68.5438C7.75242 68.8361 9.07686 69.6379 9.79883 70.1557C10.3692 70.5647 11.2931 71.3523 12.4079 72.6552C13.5228 73.9582 14.785 75.7734 15.576 77.0088C16.7225 78.7994 17.1384 80.0326 17.6578 81.5839C18.9946 85.5766 19.4492 86.4373 21.2252 88.1789C21.8799 88.8208 22.9288 89.0357 24.3768 89.2781C25.9945 89.5489 27.8597 89.4251 29.5281 89.2338C31.9518 88.9558 34.0125 86.5855 34.7025 85.2652C34.9312 84.8274 34.9252 83.0477 34.8803 80.4216C34.8516 78.7472 34.32 77.7465 33.7397 76.8332C33.0052 75.6772 31.9467 74.9486 30.9758 74.4693C28.2114 73.1045 24.737 74.0165 23.5623 74.5072C22.5617 74.9251 21.4702 77.2588 20.6375 81.2332C20.3504 82.6032 20.701 83.6529 21.2659 84.7586C22.0939 86.3792 23.7137 87.2545 25.1475 87.6365C28.308 88.4786 29.7888 87.2914 30.5985 86.7983C31.4958 86.2518 31.9728 84.5974 32.1707 83.4767C32.5966 81.0649 31.9413 80.2023 31.4488 79.4007C31.0253 78.7114 29.395 78.5603 27.5998 78.4407C26.905 78.3945 26.418 78.6929 26.1098 78.9341C25.5126 79.4015 25.5839 80.2966 25.6688 80.854C25.7814 81.5935 26.8897 81.5524 27.9149 81.6714C28.8821 81.7836 29.6613 81.6613 30.0674 81.5145C30.5633 81.3353 31.165 80.8288 32.2588 79.7788C34.1456 77.9676 35.6216 76.342 36.5397 75.6036C38.3139 74.1768 40.0015 74.0895 43.3116 74.1425C43.9992 74.1782 44.2397 74.2173 44.4263 74.2868C44.6129 74.3564 44.7384 74.4553 44.8677 74.5025" stroke="#7AB6B8" stroke-linecap="round"/>
<path d="M45.243 74.442C45.5237 74.481 46.3807 74.753 46.9827 75.1899C47.5995 75.6375 47.671 76.4931 47.9923 77.2672C48.5978 78.7258 48.4492 80.2574 48.1454 81.4484C48.0287 81.9059 47.7774 82.2344 47.5383 82.4552C47.085 82.8738 46.1883 82.2371 45.0764 81.7934C44.8429 81.7002 44.7241 81.5942 44.6617 81.279C44.4974 80.4484 44.6704 79.7406 44.8503 79.4133C45.4748 78.2766 47.1621 77.4622 48.2976 77.1631C49.4166 76.8684 50.3429 76.8339 50.7706 76.9093C51.3045 77.0034 51.8302 77.4504 52.2965 77.8404C52.9358 78.3751 52.8644 79.3731 53.4219 81.5142C54.0144 83.7892 52.8972 85.9647 52.4389 86.7812C52.0357 87.4997 51.0078 87.9514 47.4025 89.1557C45.4699 89.8013 43.8431 89.3023 42.4943 88.7887C39.1826 87.5276 38.4807 85.8834 37.8623 84.774C36.4153 82.1779 37.2291 79.1517 37.4222 78.7201C38.1387 77.1187 40.5346 76.0347 43.3147 74.8737C45.278 74.0538 46.8525 74.2113 49.0652 74.2103C50.2977 74.2097 52.0978 74.1943 55.2575 73.0514C56.9257 72.448 57.8777 71.8888 58.7587 71.6401C59.4951 71.4322 61.0364 71.2067 64.2188 71.0827C66.0506 71.0113 67.8805 71.8495 70.673 72.4497C73.927 73.1492 76.3551 72.6869 77.2412 72.552C78.5045 72.3723 80.16 72.1606 81.1351 72.2652C81.6178 72.3699 82.0762 72.5791 82.9621 72.9765" stroke="#7AB6B8" stroke-linecap="round"/>
<path d="M83.4756 73.08C84.0512 73.527 84.3629 74.1249 85.1631 75.3781C85.9687 76.6396 85.9148 79.3897 85.9511 82.025C85.9755 83.7898 84.8462 85.1158 84.1803 85.769C83.292 86.6404 82.5426 86.91 81.2326 87.3554C80.178 87.7139 79.3462 87.9538 76.0583 88.0172C74.6807 88.0438 73.6794 87.1468 72.7792 86.2753C71.0234 84.5756 70.6341 83.2796 70.4968 81.8721C70.1767 78.5923 71.3124 77.0224 72.2821 75.798C73.2206 74.6129 74.8205 74.642 76.1075 74.4265C78.0553 74.1003 80.1205 75.2979 81.4156 76.3359C82.4065 77.1302 82.4981 78.3068 82.5359 79.4819C82.5706 80.5617 81.8363 81.8953 81.305 82.4352C80.503 83.2501 79.1464 82.3493 78.2442 82.2634C77.887 82.2294 77.7617 82.04 77.6703 81.8035C77.2865 80.8099 77.2967 80.1412 77.3155 79.4649C77.3244 79.1461 77.7276 78.952 78.0353 78.7669C78.8446 78.28 80.0698 78.598 80.3612 78.834C80.644 79.063 80.5392 79.5452 80.5156 79.8995C80.4611 80.7155 79.8268 81.3157 79.4874 81.463C79.2913 81.5153 79.0465 81.5219 78.821 81.4932C78.5954 81.4645 78.3964 81.4003 77.9823 81.199" stroke="#7AB6B8" stroke-linecap="round"/>
<path d="M78.628 81.7109C78.1407 81.7109 76.9736 81.7905 75.3421 82.1558C74.7285 82.2932 73.3569 82.4421 71.3639 82.815C68.4413 83.3618 65.9917 82.9902 64.7244 82.652C63.7824 82.4005 63.172 81.9093 62.2889 81.405C61.9346 81.2027 61.6853 80.9076 61.4936 80.5005C61.279 80.0451 61.3171 79.467 61.3981 79.0018C61.4618 78.6359 62.0885 78.5656 62.6773 78.4704C63.3057 78.3687 63.8133 78.5413 64.093 78.8087C64.7203 79.4081 64.4074 81.1818 64.3466 82.4846C64.3248 82.9528 64.1375 83.0116 63.8483 83.0441C62.5027 83.1956 61.5765 83.3476 59.6189 83.6355C59.0013 83.7263 58.6214 83.6571 58.2754 83.5794C57.1462 83.3259 56.097 81.9378 55.7363 81.2497C54.9517 79.7532 55.5896 77.2008 55.7839 76.2514C56.031 75.0443 57.3169 74.0174 59.5937 73.0645C62.0826 72.0228 64.2153 72.9232 64.7115 73.0931C65.9331 73.5112 66.9882 74.6444 67.6747 75.2847C68.2726 75.8423 68.7997 77.3736 69.1476 79.0362C70.0033 83.1255 69.5141 85.8914 69.2635 86.1221C68.6741 86.6647 67.6692 87.2998 66.4676 88.1007C64.2207 89.5984 63.112 89.2404 60.1768 89.2406C58.099 89.2408 56.0893 86.7364 55.1671 85.0867C54.8461 84.3089 54.4209 83.1745 53.9885 81.9648C53.8347 81.5018 53.8142 81.345 53.7931 81.152" stroke="#7AB6B8" stroke-linecap="round"/>
<path d="M53.7931 81.152C53.7931 80.1496 53.6969 77.7506 53.3589 76.9799C52.8908 75.9124 52.3803 75.386 51.3734 73.535C50.8934 72.6525 50.055 72.3595 49.2916 72.1522C48.8937 72.0441 48.304 71.9544 47.2641 71.8225C45.6657 71.6196 43.0722 71.6713 40.3908 71.5571C37.6621 71.4408 34.9254 72.228 32.9401 72.2738C31.6832 72.3028 30.1985 71.1711 28.2904 70.1453C27.5191 69.7307 27.1826 68.8065 26.7716 67.7109C25.992 65.6332 26.6991 64.105 27.2661 63.131C27.3901 62.918 27.5068 62.811 27.6627 62.7275C28.0036 62.545 28.7453 62.535 29.466 62.5841C30.2416 62.6369 29.1794 64.6777 29.4627 65.3889C29.8788 66.4333 30.9675 67.0531 32.0095 67.6845C32.88 68.2119 35.3875 68.858 38.3232 69.6443C39.5265 69.9666 40.9163 69.9677 43.2336 69.9371C45.2685 69.9103 46.9657 69.6352 48.2206 69.3837C50.1166 69.0036 52.9162 68.7936 55.4053 68.3312C56.7836 68.0751 58.3689 67.6396 60.2287 67.4032C64.1475 66.905 66.4551 67.1103 67.0389 67.27C69.3019 67.7445 71.4392 68.467 72.6975 68.8641C72.8798 68.9083 73.0724 68.9431 73.5778 69.066" stroke="#7AB6B8" stroke-linecap="round"/>
<path d="M73.5778 69.066C74.0298 69.0678 75.9119 69.0972 77.25 68.8193C77.9944 68.6648 78.4636 68.2518 78.7229 67.993C79.2341 67.4828 79.1212 66.2104 79.5423 65.3744C80.1517 64.1648 81.512 63.3771 82.2413 62.9707C82.8724 62.619 83.7787 62.9816 84.6207 63.4486C85.0318 63.6765 85.2423 64.0951 85.4264 64.4652C86.1871 65.9936 85.4682 68.5574 84.9806 69.1157C84.7282 69.4046 83.9502 69.6747 82.9892 69.9286C82.3857 70.0881 81.9328 69.5797 81.587 69.2033C80.9237 68.4815 81.1681 67.5874 81.0964 66.3639C81.0514 65.5948 81.1733 64.0839 81.3915 61.7145C81.7977 57.3044 81.2308 55.9904 80.6009 54.6613C80.1376 54.0126 79.6387 53.0149 79.1714 51.7709C78.9941 51.262 78.9382 51.0018 78.8806 50.7336" stroke="#7AB6B8" stroke-linecap="round"/>
<path d="M78.8806 50.6977C78.8806 50.6834 78.8766 50.3856 78.852 49.8499C78.8314 49.6046 78.7941 49.413 78.7406 49.1957C78.6871 48.9784 78.6185 48.7411 78.5079 48.124" stroke="#7AB6B8" stroke-linecap="round"/>
<path d="M78.5079 48.0116C78.5079 47.2557 78.4814 45.2996 78.304 44.6131C78.1254 43.9221 74.7296 45.022 70.7337 45.4867C66.3988 45.9908 65.4591 45.3775 64.7272 45.059C64.0814 44.778 63.7537 44.0596 63.5042 43.5617C63.4056 43.3649 66.7281 43.3605 71.2143 43.2964C74.2066 43.2537 76.4436 41.8543 77.9418 40.7131C78.7563 40.0927 79.0684 39.1781 79.1994 38.3155C79.2524 37.3815 79.1213 36.5418 78.869 35.958C78.7542 35.7177 78.6664 35.5906 78.4242 35.3051" stroke="#7AB6B8" stroke-linecap="round"/>
<path d="M78.4242 35.3052C78.2449 35.1375 77.597 34.5832 76.6781 33.7971C76.0578 33.2664 74.301 33.0125 72.8245 32.6167C71.8526 32.3562 69.1614 32.16 66.5371 32.4654C65.589 32.5757 64.2556 33.0419 61.557 33.1583C57.9576 33.3136 56.1282 32.3488 55.2669 31.8423C55.126 31.7595 55.1163 31.5525 55.1249 31.393C55.1335 31.2336 55.2069 31.077 55.3101 30.9543C56.1471 29.9578 58.5942 29.5358 60.7123 29.269C62.2609 29.074 64.8 29.0342 66.2764 29.003C68.0965 28.9644 70.0078 29.3065 72.6599 29.7463C76.2189 30.3365 78.3679 32.8495 78.5922 33.3571C78.6878 33.5735 78.6596 33.7394 78.5873 33.8709C78.3774 34.1029 78.0658 34.2753 77.6662 34.3816C77.4364 34.4191 77.1517 34.4233 76.6493 34.5627" stroke="#7AB6B8" stroke-linecap="round"/>
<path d="M76.9679 34.7802C76.6845 34.905 75.1638 35.6656 73.5619 36.1847C72.1806 36.6324 71.0055 36.3951 69.7215 36.4925C64.563 36.8841 63.6228 36.4261 62.2567 36.1261C60.2838 35.6928 58.7586 35.3051 56.8435 35.0876C56.4405 35.0418 56.2733 35.0733 56.1291 35.1505C55.9848 35.2277 55.867 35.3673 55.783 35.5146C55.6218 35.7973 55.572 38.4731 55.5011 42.5875C55.4184 44.8339 55.2986 45.8651 55.0383 46.9178C54.8525 47.5957 54.5574 48.5653 54.201 49.6738" stroke="#7AB6B8" stroke-linecap="round"/>
<path d="M54.2009 49.6738C53.7445 50.335 52.5782 51.8236 52.0118 52.2207C51.2204 52.7755 50.4483 53.3753 48.7982 54.4606C47.0963 55.5799 46.1896 55.944 44.8818 56.6209C43.8159 57.1727 42.5504 57.3952 40.9703 58.1988C39.6161 58.8874 37.6919 59.2356 36.0264 59.913C34.1229 60.6871 33.4457 61.2211 32.8377 62.0634C32.3527 62.7354 32.4028 63.6135 32.7035 64.3962C33.0685 65.3459 34.1729 65.7416 35.0467 66.1144C36.1516 66.5857 37.0825 66.7354 38.2093 66.7928C42.959 67.0346 43.7213 66.675 45.5414 65.6098C46.0957 65.2854 46.2823 64.9221 46.5251 64.4841C47.5953 62.5534 46.9693 59.9679 46.7877 59.5362C46.4329 58.6924 44.9804 58.9965 44.7024 59.0945C44.0024 59.3411 44.5303 60.6907 44.779 61.3789C45.334 62.9145 47.3146 64.8216 47.9118 65.2708C48.6298 65.8107 50.4426 65.5982 51.8991 65.2075C52.8873 64.9424 53.2698 64.1782 53.7071 63.4869C54.5268 62.1912 54.1958 59.5791 54.0637 58.2218C54.0306 57.8817 53.7934 57.5685 53.5681 57.238C53.3168 56.8692 52.8718 56.7205 52.4916 56.6701C52.3087 56.6459 52.1403 56.6975 52.0107 56.783C51.4832 57.1312 51.6387 58.3934 51.9065 59.631C52.4416 62.103 53.7432 62.6526 54.5286 62.9427C55.6802 63.3682 57.0922 62.2436 58.3211 61.4554C59.1412 60.9295 59.3031 59.7868 59.4917 55.9314C59.5628 54.4794 58.87 53.5472 58.2028 53.0128C57.9066 52.7755 57.4686 52.8477 57.1113 52.8969C56.4001 52.9947 56.3845 54.231 56.3618 56.7086C56.672 58.1765 57.3875 59.545 57.9529 59.9971C58.0991 60.0872 58.2565 60.1606 58.8302 60.4068" stroke="#7AB6B8" stroke-linecap="round"/>
<path d="M59.4902 60.5791C59.5139 60.5791 60.4764 60.5611 62.2734 60.4669C63.8463 60.3843 66.2107 60.155 68.7739 60.2228C70.3596 60.2648 72.0967 61.0722 73.4018 61.9986C74.4939 62.7739 74.5227 64.5924 74.8197 65.8731C75.2212 67.6044 76.2249 70.9019 77.621 73.0233C78.2279 73.9455 79.076 74.3923 79.6319 74.723C80.0338 74.9621 81.3622 75.0721 83.5108 75.2443C85.4696 75.4013 86.9067 75.2209 88.1393 74.9256C89.9521 74.4913 91.6493 73.6562 93.1507 72.6585C95.1073 71.3583 96.2649 69.731 97.0817 68.4355C98.2873 66.5233 98.7877 64.7685 99.0156 63.8489C99.2734 62.8089 99.3038 61.8126 99.2464 60.7905C99.1665 59.3656 98.3626 56.7694 97.3855 53.7453C96.499 51.0017 96.6154 49.7592 97.0081 48.0496C97.3625 46.507 99.3399 45.0651 100.644 44.1177C100.96 43.9431 101.399 43.728 101.975 43.5467C102.551 43.3654 103.251 43.2244 104.111 43.0471" stroke="#7AB6B8" stroke-linecap="round"/>
<path d="M104.111 43.0471C104.363 43.0061 105.122 42.7985 105.776 42.3543C106.937 41.5672 108.397 39.5801 109.198 38.095C109.394 37.5667 109.55 36.7165 109.657 35.6555C109.694 35.1977 109.694 34.9037 109.694 34.6007" stroke="#7AB6B8" stroke-linecap="round"/>
<path d="M60 0C93.1371 0 120 26.8629 120 60C120 93.1371 93.1371 120 60 120C26.8629 120 0 93.1371 0 60C0 26.8629 26.8629 0 60 0ZM60.4688 1.5C28.4362 1.5 1.5 26.9675 1.5 59C1.5 91.0325 28.4362 118.5 60.4688 118.5C92.5012 118.5 118.5 91.0325 118.5 59C118.5 26.9675 92.5012 1.50003 60.4688 1.5Z" fill="#7AB6B8"/>
<path d="M60 0C90.9279 0 116 26.8629 116 60C116 93.1371 90.9279 120 60 120C29.0721 120 4 93.1371 4 60C4 26.8629 29.0721 0 60 0ZM60.4375 1.5C30.5405 1.5 5.40039 26.9675 5.40039 59C5.40039 91.0325 30.5405 118.5 60.4375 118.5C90.3345 118.5 114.6 91.0325 114.6 59C114.6 26.9675 90.3345 1.50002 60.4375 1.5Z" fill="#7AB6B8"/>
<path d="M60 4C93.1371 4 120 29.0721 120 60C120 90.9279 93.1371 116 60 116C26.8629 116 0 90.9279 0 60C0 29.0721 26.8629 4 60 4ZM60.4688 5.40039C28.4363 5.40039 1.50015 29.1695 1.5 59.0664C1.5 88.9634 28.4362 114.6 60.4688 114.6C92.5013 114.6 118.5 88.9634 118.5 59.0664C118.5 29.1695 92.5012 5.40041 60.4688 5.40039Z" fill="#7AB6B8"/>
</svg>
